<mxfile host="app.diagrams.net" modified="2022-01-22T09:18:21.459Z" agent="5.0 (Windows NT 10.0; Win64; x64) AppleWebKit/537.36 (KHTML, like Gecko) Chrome/97.0.4692.99 Safari/537.36 Edg/97.0.1072.69" etag="3bf3xEJDYU5vzESJOzUe" version="16.4.5" type="github">
  <diagram id="CIzQjFlQaGnvJAiPNnmD" name="Page-1">
    <mxGraphModel dx="2302" dy="1085" grid="0" gridSize="10" guides="1" tooltips="1" connect="1" arrows="1" fold="1" page="0" pageScale="1" pageWidth="850" pageHeight="1100" math="0" shadow="0">
      <root>
        <mxCell id="0" />
        <mxCell id="1" parent="0" />
        <mxCell id="BN-cFnopleWR1GkDT9Ne-3" value="Username: _________&lt;br&gt;Password: _________&lt;br&gt;" style="rounded=0;whiteSpace=wrap;html=1;sketch=0;hachureGap=4;fontSize=16;" vertex="1" parent="1">
          <mxGeometry x="18.5" y="280" width="224" height="42" as="geometry" />
        </mxCell>
        <mxCell id="BN-cFnopleWR1GkDT9Ne-4" value="&lt;h1&gt;&lt;font style=&quot;font-size: 50px&quot;&gt;Listerz&lt;/font&gt;&lt;/h1&gt;" style="text;html=1;align=center;verticalAlign=middle;resizable=0;points=[];autosize=1;strokeColor=none;fillColor=none;sketch=0;hachureGap=4;fontSize=16;" vertex="1" parent="1">
          <mxGeometry x="45" y="166" width="171" height="72" as="geometry" />
        </mxCell>
        <mxCell id="BN-cFnopleWR1GkDT9Ne-8" value="Login" style="rounded=0;whiteSpace=wrap;html=1;sketch=0;hachureGap=4;fontSize=16;" vertex="1" parent="1">
          <mxGeometry x="18.5" y="331" width="224" height="42" as="geometry" />
        </mxCell>
        <mxCell id="BN-cFnopleWR1GkDT9Ne-10" value="Continue SSO" style="whiteSpace=wrap;html=1;sketch=0;hachureGap=4;fontSize=16;" vertex="1" parent="1">
          <mxGeometry x="19" y="382" width="224" height="42" as="geometry" />
        </mxCell>
        <mxCell id="BN-cFnopleWR1GkDT9Ne-17" value="" style="rounded=0;whiteSpace=wrap;html=1;sketch=0;hachureGap=4;fontSize=16;fillColor=none;" vertex="1" parent="1">
          <mxGeometry x="-479" y="105" width="1246" height="1" as="geometry" />
        </mxCell>
        <mxCell id="BN-cFnopleWR1GkDT9Ne-22" style="edgeStyle=none;curved=1;sketch=0;orthogonalLoop=1;jettySize=auto;html=1;fontSize=16;endArrow=open;startSize=14;endSize=14;sourcePerimeterSpacing=8;targetPerimeterSpacing=8;" edge="1" parent="1" source="BN-cFnopleWR1GkDT9Ne-18" target="BN-cFnopleWR1GkDT9Ne-21">
          <mxGeometry relative="1" as="geometry">
            <Array as="points">
              <mxPoint x="-418" y="10" />
            </Array>
          </mxGeometry>
        </mxCell>
        <mxCell id="BN-cFnopleWR1GkDT9Ne-18" value="&amp;lt;logo&amp;gt;" style="text;strokeColor=none;fillColor=none;html=1;align=center;verticalAlign=middle;whiteSpace=wrap;rounded=0;sketch=0;hachureGap=4;fontSize=16;" vertex="1" parent="1">
          <mxGeometry x="-468" y="63" width="60" height="30" as="geometry" />
        </mxCell>
        <mxCell id="BN-cFnopleWR1GkDT9Ne-29" style="edgeStyle=none;curved=1;sketch=0;orthogonalLoop=1;jettySize=auto;html=1;fontSize=16;endArrow=open;startSize=14;endSize=14;sourcePerimeterSpacing=8;targetPerimeterSpacing=8;" edge="1" parent="1" source="BN-cFnopleWR1GkDT9Ne-19" target="BN-cFnopleWR1GkDT9Ne-28">
          <mxGeometry relative="1" as="geometry" />
        </mxCell>
        <mxCell id="BN-cFnopleWR1GkDT9Ne-19" value="Register" style="text;strokeColor=none;fillColor=none;html=1;align=center;verticalAlign=middle;whiteSpace=wrap;rounded=0;sketch=0;hachureGap=4;fontSize=16;" vertex="1" parent="1">
          <mxGeometry x="679" y="63" width="75" height="30" as="geometry" />
        </mxCell>
        <mxCell id="BN-cFnopleWR1GkDT9Ne-21" value="(will be used as a home-button)" style="text;strokeColor=none;fillColor=none;html=1;align=center;verticalAlign=middle;whiteSpace=wrap;rounded=0;sketch=0;hachureGap=4;fontSize=16;" vertex="1" parent="1">
          <mxGeometry x="-360" y="7" width="245" height="30" as="geometry" />
        </mxCell>
        <mxCell id="BN-cFnopleWR1GkDT9Ne-27" style="edgeStyle=none;curved=1;sketch=0;orthogonalLoop=1;jettySize=auto;html=1;fontSize=16;endArrow=open;startSize=14;endSize=14;sourcePerimeterSpacing=8;targetPerimeterSpacing=8;" edge="1" parent="1" source="BN-cFnopleWR1GkDT9Ne-25" target="BN-cFnopleWR1GkDT9Ne-26">
          <mxGeometry relative="1" as="geometry">
            <Array as="points">
              <mxPoint x="608" y="20" />
            </Array>
          </mxGeometry>
        </mxCell>
        <mxCell id="BN-cFnopleWR1GkDT9Ne-25" value="About" style="text;strokeColor=none;fillColor=none;html=1;align=center;verticalAlign=middle;whiteSpace=wrap;rounded=0;sketch=0;hachureGap=4;fontSize=16;" vertex="1" parent="1">
          <mxGeometry x="585" y="63" width="75" height="30" as="geometry" />
        </mxCell>
        <mxCell id="BN-cFnopleWR1GkDT9Ne-26" value="(transfer to &quot;about&quot; page)" style="text;strokeColor=none;fillColor=none;html=1;align=center;verticalAlign=middle;whiteSpace=wrap;rounded=0;sketch=0;hachureGap=4;fontSize=16;" vertex="1" parent="1">
          <mxGeometry x="378" y="-14" width="199" height="30" as="geometry" />
        </mxCell>
        <mxCell id="BN-cFnopleWR1GkDT9Ne-28" value="Register" style="text;strokeColor=none;fillColor=none;html=1;align=center;verticalAlign=middle;whiteSpace=wrap;rounded=0;sketch=0;hachureGap=4;fontSize=16;" vertex="1" parent="1">
          <mxGeometry x="745" y="-16" width="75" height="30" as="geometry" />
        </mxCell>
      </root>
    </mxGraphModel>
  </diagram>
</mxfile>
